<svg width="12" height="10" viewBox="0 0 12 10" fill="none" xmlns="http://www.w3.org/2000/svg">
<path fill-rule="evenodd" clip-rule="evenodd" d="M4.20286 8.49227L1.09073 5.38015C0.917196 5.20662 0.636253 5.20662 0.46316 5.38015C0.289624 5.55325 0.289624 5.83419 0.46316 6.00773L3.57528 9.11985C3.74882 9.29338 4.02976 9.29338 4.20286 9.11985C4.37639 8.94675 4.37639 8.66581 4.20286 8.49227Z" fill="#F38C2C"/>
<path d="M4.20286 8.49227L1.09073 5.38015C0.917196 5.20662 0.636253 5.20662 0.46316 5.38015C0.289624 5.55325 0.289624 5.83419 0.46316 6.00773L3.57528 9.11985C3.74882 9.29338 4.02976 9.29338 4.20286 9.11985C4.37639 8.94675 4.37639 8.66581 4.20286 8.49227" stroke="#F38C2C" stroke-width="0.65"/>
<path fill-rule="evenodd" clip-rule="evenodd" d="M4.57677 9.09373L11.5107 2.15978C11.7191 1.95142 11.7191 1.6141 11.5107 1.40627C11.3029 1.19791 10.9656 1.19791 10.7572 1.40627L3.82326 8.34022C3.6149 8.54858 3.6149 8.8859 3.82326 9.09373C4.03109 9.30209 4.36841 9.30209 4.57677 9.09373Z" fill="#F38C2C"/>
<path d="M4.57677 9.09373L11.5107 2.15978C11.7191 1.95142 11.7191 1.6141 11.5107 1.40627C11.3029 1.19791 10.9656 1.19791 10.7572 1.40627L3.82326 8.34022C3.6149 8.54858 3.6149 8.8859 3.82326 9.09373C4.03109 9.30209 4.36841 9.30209 4.57677 9.09373" stroke="#F38C2C" stroke-width="0.65"/>
</svg>
